<?xml version="1.0" standalone="no"?>
<!DOCTYPE svg PUBLIC "-//W3C//DTD SVG 20010904//EN"
 "http://www.w3.org/TR/2001/REC-SVG-20010904/DTD/svg10.dtd">
<svg version="1.0" xmlns="http://www.w3.org/2000/svg"
 width="72.000000pt" height="72.000000pt" viewBox="0 0 72.000000 72.000000"
 preserveAspectRatio="xMidYMid meet">
<metadata>
Created by potrace 1.11, written by Peter Selinger 2001-2013
</metadata>
<g transform="translate(0.000000,72.000000) scale(0.100000,-0.100000)"
fill="#000000" stroke="none">
<path d="M100 594 c0 -133 5 -154 49 -191 l26 -23 -29 0 c-96 0 -183 -69 -125
-100 17 -10 26 -6 60 24 21 20 47 36 57 37 9 0 27 2 40 3 30 4 28 -5 -7 -29
-56 -37 -71 -80 -71 -205 l0 -111 27 3 27 3 1 106 c2 89 5 112 23 141 66 106
290 109 364 5 20 -27 23 -46 24 -132 1 -55 3 -106 3 -112 1 -7 12 -13 25 -13
l24 0 -2 118 c-2 128 -11 153 -73 202 -22 17 -24 22 -13 36 27 32 71 46 126
41 47 -4 54 -3 60 16 22 68 -134 48 -208 -28 -21 -21 -34 -26 -52 -21 -14 3
-57 8 -98 11 -85 7 -173 43 -184 78 -10 29 -12 197 -2 197 4 0 29 -9 55 -19
42 -16 51 -17 68 -5 23 17 65 18 116 3 31 -10 45 -9 78 5 23 9 46 16 51 16 6
0 10 -23 9 -52 -3 -112 -2 -114 31 -114 33 0 32 -5 32 111 0 36 -1 78 -1 95
l-1 29 -67 -28 c-65 -28 -67 -28 -105 -11 -45 20 -124 18 -169 -4 -27 -14 -34
-13 -77 6 -26 11 -57 24 -69 29 l-23 9 0 -126z"/>
<path d="M237 553 c-13 -12 -7 -42 10 -52 23 -12 53 4 53 28 0 25 -45 42 -63
24z"/>
<path d="M423 544 c-9 -23 11 -50 33 -46 30 6 40 20 28 40 -15 24 -52 28 -61
6z"/>
<path d="M335 449 c-3 -3 2 -12 10 -19 12 -10 18 -10 30 0 9 7 13 15 10 18 -8
9 -45 10 -50 1z"/>
<path d="M277 232 c-14 -15 -15 -21 -4 -36 16 -22 46 -18 61 7 9 15 7 21 -8
33 -25 18 -30 18 -49 -4z"/>
<path d="M397 239 c-26 -15 -21 -48 7 -55 31 -7 46 1 46 26 0 25 -30 41 -53
29z"/>
<path d="M217 156 c-3 -8 -4 -27 -1 -43 15 -85 74 -134 115 -97 19 17 21 17
50 0 25 -15 35 -16 59 -6 33 14 60 70 60 125 0 50 -22 44 -40 -12 -9 -26 -25
-53 -39 -62 -24 -15 -24 -15 -19 7 7 26 -21 62 -47 62 -20 0 -57 -38 -50 -50
4 -6 3 -15 0 -20 -10 -16 -43 27 -55 72 -11 39 -24 49 -33 24z"/>
</g>
</svg>
