<svg xmlns="http://www.w3.org/2000/svg" width="37" height="49.253" viewBox="0 0 37 49.253">
  <path id="União_122" data-name="União 122" d="M-409.5,13.251c-1.064-1.136-2.163-2.28-3.226-3.387a99.379,99.379,0,0,1-10.5-12.157,30.33,30.33,0,0,1-3.46-6.5A19.8,19.8,0,0,1-428-15.808a21.027,21.027,0,0,1,5.42-14.279A17.635,17.635,0,0,1-409.5-36a17.631,17.631,0,0,1,13.08,5.914A21.03,21.03,0,0,1-391-15.808a19.8,19.8,0,0,1-1.311,7.013,30.366,30.366,0,0,1-3.459,6.5,99.443,99.443,0,0,1-10.5,12.157c-1.063,1.107-2.162,2.251-3.226,3.387v0Z" transform="translate(428 36)" fill="#fff"/>
</svg>
